# xmcd
#
# Track frame offsets:
#	150
#	2890
#	22311
#	40848
#	61877
#	83275
#	98889
#	122064
#	142931
#	160787
#	180776
#	201024
#	216750
#	230740
#	244767
#	267605
#	290878
#	305023
#	315014
#
# Disc length: 4486 seconds
#
# Revision: 1
# Processed by: cddbd v1.5.2PL0 Copyright (c) Steve Scherf et al.
# Submitted via: audiograbber 1.83.01
#
DISCID=03118413
DTITLE=james scott bullard - the rise and fall of...
DYEAR=2014
DGENRE=Country
TTITLE0=nobody writes letters anymore
TTITLE1=gal o' mine
TTITLE2=carolina rose
TTITLE3=heartless woman
TTITLE4=if i ever see you again
TTITLE5=home tonight
TTITLE6=for old times sake
TTITLE7=big city blues
TTITLE8=dear anybody
TTITLE9=think i'll hang around
TTITLE10=cigarettes and black coffee
TTITLE11=don't let me down again
TTITLE12=josephine
TTITLE13=some hearts
TTITLE14=memory of you
TTITLE15=somebody, somewhere
TTITLE16=skin and bones
TTITLE17=runaway blues
TTITLE18=bonus - if i ever see you again - live
EXTD=
EXTT0=
EXTT1=
EXTT2=
EXTT3=
EXTT4=
EXTT5=
EXTT6=
EXTT7=
EXTT8=
EXTT9=
EXTT10=
EXTT11=
EXTT12=
EXTT13=
EXTT14=
EXTT15=
EXTT16=
EXTT17=
EXTT18=
PLAYORDER=
